<svg id="Layer_1" enable-background="new 0 0 510 510" height="512" viewBox="0 0 510 510" width="512" xmlns="http://www.w3.org/2000/svg"><g id="XMLID_790_"><path id="XMLID_868_" d="m167 360c-75.54 0-137 61.456-137 137v13h75l14.999-16 15.001 16h120l15-49.333-15-55.667-45-45z" fill="#fede51"/><path id="XMLID_865_" d="m480 497c0-75.54-61.456-137-137-137h-43l-45 45v105h120l15-15 15 15h75c0-4.547 0-8.453 0-13z" fill="#febd4e"/><path id="XMLID_862_" d="m375 465h30v45h-30z" fill="#fd9f4b"/><path id="XMLID_861_" d="m105 465h30v45h-30z" fill="#febd4e"/><path id="XMLID_858_" d="m210 302.957-29.681-188.199v.001l-10.819-44.259-24.31-28.539c-34.947 31.224-55.19 75.629-55.19 123.039v165h120l14-8.5z" fill="#525263"/><path id="XMLID_855_" d="m210 302.957v57.043c0 24.852 20.146 45 45 45l11.209-51.688-11.209-38.312-22.5-14.625z" fill="#fec3a8"/><path id="XMLID_851_" d="m300 360c0-10.996 0-46.308 0-57.043l-22.5-1.332-22.5 13.375v90c24.852 0 45-20.147 45-45z" fill="#feab9b"/><path id="XMLID_848_" d="m180.32 114.759c-9.957 14.768-15.32 32.134-15.32 50.241v60c0 5.111.426 10.123 1.245 15.001l16.255 13.249-5.646 16.426c15.515 27.079 44.699 45.324 78.146 45.324l11.209-71.21-11.209-93.628-35.5-25.162z" fill="#fed9b6"/><path id="XMLID_843_" d="m345 225c0-7.259 0-52.693 0-60l-45-32-45 17.162v89.838l-13.5 15.001 13.5 14.999v45c49.704 0 90-40.293 90-90z" fill="#fec3a8"/><path id="XMLID_839_" d="m255 240h-88.749c1.773 10.571 5.42 20.714 10.792 30h77.957z" fill="#454554"/><path id="XMLID_830_" d="m145.19 41.961c4.127 15.477 11.306 51.583 42.814 80.551 15.823 14.547 37.574 26.257 66.996 27.646l11.209-75.08-11.209-75.078c-40.79 0-79.595 14.966-109.81 41.961z" fill="#454554"/><path id="XMLID_791_" d="m270 150c58.831-4.004 74.898 14.972 75 15v60c0 32.627-17.492 62.043-45 77.957v27.043h120c0-4.655 0-160.348 0-165 0-90.979-74.016-165-165-165v150.159c4.987.236 9.974.183 15-.159z" fill="#2e2e2e"/></g></svg>